<?xml version="1.0" encoding="UTF-8" standalone="no"?>
<!-- Created with Inkscape (http://www.inkscape.org/) -->

<svg
   xmlns:dc="http://purl.org/dc/elements/1.1/"
   xmlns:cc="http://creativecommons.org/ns#"
   xmlns:rdf="http://www.w3.org/1999/02/22-rdf-syntax-ns#"
   xmlns:svg="http://www.w3.org/2000/svg"
   xmlns="http://www.w3.org/2000/svg"
   xmlns:sodipodi="http://sodipodi.sourceforge.net/DTD/sodipodi-0.dtd"
   xmlns:inkscape="http://www.inkscape.org/namespaces/inkscape"
   width="266.74603mm"
   height="242.71249mm"
   viewBox="0 0 945.16313 860.00491"
   id="svg2"
   version="1.1"
   inkscape:version="0.91 r13725"
   sodipodi:docname="halloween_oda.svg"
   inkscape:export-filename="/Users/duhrer/Desktop/pumpkin-brown-ridges.png"
   inkscape:export-xdpi="71.998901"
   inkscape:export-ydpi="71.998901">
  <defs
     id="defs4" />
  <sodipodi:namedview
     id="base"
     pagecolor="#ffffff"
     bordercolor="#666666"
     borderopacity="1.0"
     inkscape:pageopacity="0"
     inkscape:pageshadow="2"
     inkscape:zoom="0.24748737"
     inkscape:cx="504.02931"
     inkscape:cy="854.20546"
     inkscape:document-units="px"
     inkscape:current-layer="layer1"
     showgrid="false"
     inkscape:window-width="1920"
     inkscape:window-height="957"
     inkscape:window-x="0"
     inkscape:window-y="1"
     inkscape:window-maximized="1"
     fit-margin-top="20"
     fit-margin-left="5"
     fit-margin-right="5"
     fit-margin-bottom="20" />
  <metadata
     id="metadata7">
    <rdf:RDF>
      <cc:Work
         rdf:about="">
        <dc:format>image/svg+xml</dc:format>
        <dc:type
           rdf:resource="http://purl.org/dc/dcmitype/StillImage" />
        <dc:title></dc:title>
      </cc:Work>
    </rdf:RDF>
  </metadata>
  <g
     inkscape:label="Layer 1"
     inkscape:groupmode="layer"
     id="layer1"
     transform="translate(3877.4462,-333.8366)">
    <g
       id="g4158"
       transform="matrix(0.5,0,0,0.5,-1929.8648,561.48769)">
      <g
         id="lid"
         transform="translate(-2302.035,583.71583)">
        <path
           sodipodi:nodetypes="zzcsszzszczsczz"
           inkscape:connector-curvature="0"
           id="path4258"
           d="m -712.70107,-774.73672 c 12.72944,-26.3822 0.86483,-95.13712 9.82895,-105.10779 8.96412,-9.97067 15.40856,3.16685 29.61657,2.05917 6.7142,0.0328 17.93735,-10.44272 25.52212,-10.63778 7.58477,-0.19507 15.45972,9.89027 23.33469,9.61607 15.74992,-0.5484 41.06483,-22.22755 44.57118,1.7779 3.50635,24.00545 8.72032,81.3765 15.31419,96.45854 6.59387,15.08204 95.47251,77.02091 86.93021,92.91811 -4.28671,7.97755 -66.68998,-37.39797 -84.03708,-29.2795 -17.34711,8.11846 25.97984,44.05444 6.46742,45.85741 -18.00222,10.06012 -28.46383,-42.38695 -72.2696,-42.50206 -43.80577,-0.1151 -41.69817,39.61604 -52.39855,37.73151 -12.36953,-2.1785 -13.62723,-35.85721 -36.19572,-39.24062 -13.58188,-2.22314 -50.04853,36.98133 -56.75001,21.90432 -6.70147,-15.07701 47.33619,-55.17308 60.06563,-81.55528 z"
           style="fill:#816838;fill-opacity:1;fill-rule:evenodd;stroke:#000000;stroke-width:17.71653557;stroke-linecap:butt;stroke-linejoin:miter;stroke-miterlimit:4;stroke-dasharray:none;stroke-opacity:1" />
        <path
           inkscape:connector-curvature="0"
           id="path4260"
           d="m -579.99584,-728.83622 c -12.22692,0.15046 -24.3854,8.86328 -36.0996,25.86914 -20.7372,-16.32439 -42.22931,-24.68583 -63.8379,-24.83594 -14.81573,0.18346 -29.58993,4.22713 -44.1152,12.07422 -20.7473,-7.36506 -41.82784,-11.12393 -62.9609,-11.22656 -15.38594,0.22863 -30.74509,2.3952 -45.9688,6.48438 -16.45952,-3.91837 -33.05941,-6.00053 -49.6875,-6.23243 -23.38077,0.15294 -46.70053,3.96415 -69.6484,11.38282 -23.14967,-7.48282 -46.67728,-11.29433 -70.26366,-11.38282 -12.9925,0.23094 -25.9687,1.59154 -38.875,4.07617 -13.636,-2.61558 -27.3492,-3.9764 -41.0762,-4.07617 l 117.82965,153.63761 c 0,0 187.73911,-23.14347 338.98481,-23.14347 151.2458,0 335.57818,23.14347 335.57818,23.14347 l 116.73622,-142.25479 c 0,0 -46.26763,-11.22988 -69.6484,-11.38282 -16.62746,0.23204 -33.22671,2.3142 -49.6856,6.23243 -15.22368,-4.08917 -30.5828,-6.25574 -45.9687,-6.48438 -21.13306,0.10263 -42.2136,3.8615 -62.9609,11.22656 -14.5253,-7.84711 -29.29954,-11.89077 -44.1153,-12.07422 -24.87304,0.19527 -49.56839,11.26979 -73.1172,32.78907 -13.223,-22.17583 -27.10959,-33.60358 -41.0996,-33.82227 z"
           style="opacity:1;fill:#ffd42a;fill-opacity:1;fill-rule:evenodd;stroke:#000000;stroke-width:17.71653557;stroke-linecap:butt;stroke-linejoin:round;stroke-miterlimit:4;stroke-dasharray:none;stroke-dashoffset:0;stroke-opacity:1"
           sodipodi:nodetypes="ccccccccccccsccccccccc" />
      </g>
      <path
         sodipodi:nodetypes="cccccccccccssscccccccccccccccccccccssscccccccccccc"
         inkscape:connector-curvature="0"
         id="ellipse4192"
         d="m -2993.2388,-94.39537 c -20.7372,-16.32439 -42.2293,-24.68582 -63.8379,-24.83593 m 0,0 c -14.8158,0.18344 -29.59,4.2271 -44.1153,12.07421 -20.7473,-7.36506 -41.8278,-11.12393 -62.9609,-11.22656 -15.3859,0.22864 -30.745,2.39521 -45.9687,6.48438 -16.4595,-3.91836 -33.0594,-6.00053 -49.6875,-6.23242 -23.3808,0.15293 -46.7006,3.96413 -69.6485,11.38281 -23.1497,-7.48282 -46.6773,-11.29433 -70.2637,-11.38281 -12.9925,0.23094 -25.9687,1.59154 -38.875,4.07617 -13.636,-2.61558 -27.3491,-3.97639 -41.0761,-4.07617 -98.4481,-10e-6 -192.8639,64.771163 -262.4773,180.06462 -69.6133,115.29346 -108.7218,271.66498 -108.7219,434.71467 -2e-4,163.05002 39.1081,319.42203 108.7215,434.7159 69.6134,115.2939 164.0294,180.0653 262.4777,180.0653 12.9931,-0.2315 25.97,-1.5927 38.8769,-4.0781 13.6353,2.6161 27.3478,3.9776 41.0742,4.0781 23.3814,-0.1527 46.7019,-3.9639 69.6504,-11.3828 23.1491,7.4826 46.676,11.2941 70.2618,11.3828 16.6435,-0.2376 33.2584,-2.3289 49.7324,-6.2597 15.2085,4.0939 30.5526,6.2689 45.9238,6.5097 20.9164,-0.139 41.7799,-3.8596 62.3184,-11.1133 14.7372,7.9216 29.7287,11.9285 44.7578,11.9629 21.6076,-0.1072 43.101,-8.4253 63.8418,-24.707 11.7143,16.9598 23.8714,25.6285 36.0957,25.7383 14.0037,-0.2533 27.9026,-11.7374 41.1348,-33.9883 23.5341,21.5662 48.2173,32.6974 73.082,32.957 15.0285,-0.035 30.0193,-4.0417 44.7559,-11.9629 20.5391,7.2539 41.4033,10.9745 62.3203,11.1133 15.3712,-0.2408 30.7153,-2.4158 45.9238,-6.5097 16.4734,3.9307 33.0877,6.022 49.7305,6.2597 23.5864,-0.089 47.114,-3.9013 70.2636,-11.3847 22.9485,7.4195 46.2689,11.2313 69.6504,11.3847 13.7264,-0.1005 27.4389,-1.462 41.0742,-4.0781 12.907,2.4854 25.8838,3.8466 38.877,4.0781 98.4483,0 192.8643,-64.7714 262.4777,-180.0653 69.6134,-115.29387 108.7217,-271.66588 108.7215,-434.7159 -10e-5,-163.04969 -39.1086,-319.42121 -108.7219,-434.71467 -69.6134,-115.293457 -164.0292,-180.06463 -262.4773,-180.06462 -13.727,0.0998 -27.4402,1.46059 -41.0762,4.07617 -12.9063,-2.48463 -25.8825,-3.84523 -38.875,-4.07617 -23.587,0.0883 -47.1153,3.89979 -70.2656,11.38281 -22.9479,-7.41867 -46.2676,-11.22987 -69.6484,-11.38281 -16.6275,0.23203 -33.2267,2.3142 -49.6856,6.23242 -15.2237,-4.08917 -30.5828,-6.25574 -45.9687,-6.48438 -21.1331,0.10262 -42.2137,3.86149 -62.961,11.22656 -14.5253,-7.84709 -29.2995,-11.89075 -44.1152,-12.07421 -24.873,0.19527 -49.5684,11.26978 -73.1172,32.78906 -13.223,-22.17583 -27.1096,-33.60358 -41.0996,-33.82227 -12.2269,0.15046 -24.3854,8.86328 -36.0996,25.86914"
         style="opacity:1;fill:#ff6600;fill-opacity:1;fill-rule:evenodd;stroke:#dbdbdb;stroke-width:8.54216099;stroke-linecap:butt;stroke-linejoin:round;stroke-miterlimit:4;stroke-dasharray:none;stroke-dashoffset:0;stroke-opacity:1" />
      <path
         id="path4375"
         style="opacity:1;fill:none;fill-opacity:1;fill-rule:evenodd;stroke:#8d3c19;stroke-width:17.71653557;stroke-linecap:round;stroke-linejoin:round;stroke-miterlimit:4;stroke-dasharray:none;stroke-dashoffset:0;stroke-opacity:1"
         d="m -2957.138,1113.5595 c -8.4274,0 -16.7685,-4.0623 -24.9122,-11.9634 -4.0718,-3.9505 -8.0943,-8.8608 -12.0535,-14.7028 m 159.1654,-248.97734 c -17.043,79.46587 -39.0247,166.08804 -74.4887,239.63324 m 111.425,23.0352 c -14.6845,7.8879 -29.836,8.4073 -44.9209,11.9433 0,0 -38.0637,-2.0167 -63.5752,-27.9277 -7.447,-7.5637 -2.7446,-6.8862 -28.7582,22.047 -8.4176,9.3623 -32.1421,7.4176 -21.8817,6.9125 m 287.0855,-13.8071 c -21.5076,7.877 -43.5367,11.9269 -65.7937,11.9269 l -62.1558,-11.0949 c 14.6844,-7.8879 29.0129,-19.6081 42.785,-34.9378 53.0764,-71.65824 101.158,-167.10636 112.7392,-250.6837 m 75.0423,284.5428 c -23.7835,7.8738 -48.1435,11.922 -72.7555,11.922 l -29.8615,-11.6753 c 21.5077,-7.8769 42.494,-19.5811 62.6655,-34.8896 20.1714,-15.3085 39.528,-34.2215 57.7762,-56.516 18.2483,-22.29464 92.2439,-127.54017 119.4105,-287.92289 m 52.4868,210.93889 c -34.8067,57.6468 -75.814,102.663 -120.4257,133.2676 -22.3059,15.3022 -45.5128,27.0016 -69.2963,34.8753 l 67.1581,11.922 c 98.4481,0 192.8641,-64.7714 262.4774,-180.065 m -182.5268,180.065 c 98.4481,0 192.8641,-64.7714 262.4774,-180.065 m -944.1477,169.2217 c 14.6845,7.8878 42.0653,11.4482 44.9209,11.9433 21.3722,3.7055 52.906,-8.1619 60.9725,-23.6344 1.6312,-3.1289 -5.8553,-14.6158 -9.6741,-22.2935 -32.3519,-81.39045 -62.3627,-165.84218 -75.5801,-230.70435 m -148.5887,263.85695 c 21.5077,7.877 43.5367,11.9269 65.7937,11.9269 l 62.1558,-11.0949 c -14.6844,-7.8879 -29.0129,-19.6081 -42.785,-34.9378 -27.5442,-30.6593 -109.4315,-130.30429 -141.0235,-260.78523 m -194.0946,-86.45776 c 18.0272,166.60587 146.9453,315.84219 187.2882,346.45919 20.1714,15.3085 41.1577,27.0126 62.6654,34.8896 l -29.8615,11.6753 c -24.6121,0 -48.9721,-4.0482 -72.7555,-11.922 M -3662.199,931.3628 c 69.6134,115.2936 164.0294,180.0649 262.4775,180.0649 l 67.1579,-11.922 c -23.7835,-7.8738 -46.9904,-19.5732 -69.2962,-34.8754 -44.6117,-30.6046 -85.6191,-75.6208 -120.4257,-133.2676 m 42.6133,180.065 c -98.4481,0 -192.8641,-64.7713 -262.4775,-180.0649"
         inkscape:connector-curvature="0"
         sodipodi:nodetypes="csccccssscccccccccssccsccccccsscccccsccsccccccsccc" />
      <path
         inkscape:connector-curvature="0"
         id="smile"
         d="m -3529.8887,320.93359 c -10.3507,0 -18.6836,9.21013 -18.6836,20.65039 l 0,197.31446 -1.0957,-0.0156 c 1.1581,216.63706 255.0157,294.42816 524.8164,301.88276 254.9498,-0.4473 628.3854,-0.6851 682.9825,-293.69526 l -2.1211,0 c 0.06,-0.6753 0.094,-1.3595 0.094,-2.05273 l 0,-203.4336 c 0,-11.44026 -8.3329,-20.65039 -18.6836,-20.65039 l -1167.3086,0 z"
         style="opacity:1;fill:#ffe743;fill-opacity:1;fill-rule:evenodd;stroke:#000000;stroke-width:17.71653557;stroke-linecap:butt;stroke-linejoin:round;stroke-miterlimit:4;stroke-dasharray:none;stroke-dashoffset:0;stroke-opacity:1" />
      <path
         sodipodi:nodetypes="ssccccccccccsss"
         inkscape:connector-curvature="0"
         id="path4273"
         d="m -3535.6016,-13.351562 c -10.3508,-1e-6 -91.9237,11.2775343 -90.6836,22.65039 l 64.811,594.378932 139.6676,108.68357 115.4609,-81.31641 166.2539,95.60352 162.1914,-84.12305 169.2363,89.83594 175.457,-116.51833 151.6856,105.09059 145.0468,-128.5476 46.0945,-105.40072 L -2350,7.298828 c -1.411,-11.3529132 -18.3329,-20.65039 -28.6836,-20.65039 z"
         style="opacity:1;fill:#ff6600;fill-opacity:1;fill-rule:evenodd;stroke:none;stroke-width:7.08661413;stroke-linecap:butt;stroke-linejoin:round;stroke-miterlimit:4;stroke-dasharray:none;stroke-dashoffset:0;stroke-opacity:1" />
      <path
         sodipodi:nodetypes="cssssccsczcccccsssssccsssccssssccccsssssccssssccssccssssccssssccssssccsscczczzzzsccssc"
         inkscape:connector-curvature="0"
         d="m -3074.5649,692.72949 c -6.3273,-74.14206 -9.6751,-114.27434 -9.6751,-196.08194 0,-163.61518 13.391,-320.52913 37.2273,-436.222525 5.9591,-28.923354 12.4489,-54.6781134 19.3585,-77.040867 6.9095,-22.362754 14.2387,-41.333502 21.8764,-56.688832 3.8189,-7.677666 7.7149,-14.451477 11.6741,-20.293507 m 36.9657,-26.666169 c 8.4274,-2e-5 16.7685,4.06221 24.9122,11.96327 8.1437,7.90106 17.7277,24.996266 17.7277,24.996266 21.9249,-24.108426 55.1959,-35.662206 71.5752,-35.927736 16.3793,-0.26553 33.1059,3.7291 44.9208,11.94332 l 62.1559,-11.09502 95.6552,0.2517 c 24.612,0 48.972,4.04821 72.7555,11.92198 l 67.1581,-11.92198 c 24.612,10e-6 48.972,4.04822 72.7555,11.922 23.7835,7.873781 46.9904,19.573123 69.2962,34.87539 22.3059,15.302268 43.7106,34.20746 63.8898,56.492936 20.1791,22.2854772 39.1326,47.951239 56.5359,76.774646 69.6133,115.293628 108.7217,271.665328 108.7217,434.715128 0,163.04981 -39.1084,319.42152 -108.7217,434.71516 M -2914.4981,-83.304814 c 7.6377,15.355316 20.9669,44.326054 27.8764,66.688803 6.9095,22.3627485 13.3993,48.117508 19.3584,77.040865 23.8362,115.693446 42.9417,268.321716 52.9417,436.222696 4.8637,81.66293 6.9379,153.93996 0.6106,228.08205 m 184.549,-112.49646 c 11.4092,-69.97745 5.0789,-71.70886 11.1398,-117.01416 21.6588,-161.89924 -19.8608,-318.56446 -62.8415,-434.064412 -10.7452,-28.87498 -22.4475,-54.5866639 -34.9065,-76.912014 -12.459,-22.32535 -25.6748,-41.264367 -39.4469,-56.594011 -13.7721,-15.329644 -28.1005,-27.049916 -42.785,-34.937773 m 0,0 -44.9208,-11.94332 m 425.2046,771.24259 c 16.7106,-73.91611 17.5521,-73.8042 17.5521,-155.36249 0,-163.1166 -35.3662,-319.55236 -98.3184,-434.893202 -15.7381,-28.83521 -32.8779,-54.5114793 -51.1262,-76.806077 -18.2482,-22.294598 -37.6048,-41.207524 -57.7762,-56.516048 -20.1715,-15.308524 -41.1578,-27.012646 -62.6655,-34.889633 -21.5077,-7.87699 -43.5367,-11.92685 -65.7937,-11.92684 m 358.1327,1049.74702 c 69.6133,-115.29364 108.7217,-271.66538 108.7217,-434.71522 0,-163.04983 -39.1083,-319.4216 -108.7217,-434.715186 -17.4034,-28.823408 -36.3569,-54.4891695 -56.536,-76.774644 -20.1791,-22.285475 -41.5839,-41.190663 -63.8897,-56.492925 -22.3059,-15.302263 -45.5128,-27.001599 -69.2963,-34.875365 m 409.5861,1037.57328 c 69.6133,-115.29364 108.7217,-271.66535 108.7217,-434.71516 0,-163.0498 -39.1084,-319.4215 -108.7217,-434.715128 -69.6133,-115.293628 -164.0293,-180.064932 -262.4774,-180.064972 m -876.49,750.46722 c -11.4092,-74.01807 -6.5887,-56.87348 -6.5887,-138.54426 0,-163.34156 41.2894,-317.13589 84.2701,-432.635842 10.7452,-28.87498 22.4475,-54.5866639 34.9065,-76.912014 12.459,-22.32535 25.6748,-41.264367 39.4469,-56.594011 13.7721,-15.329644 28.1005,-27.049916 42.785,-34.937773 m -388.4461,756.54794 c -6.6091,-73.9161 -9.3897,-71.05288 -9.3897,-152.61116 0,-163.11657 35.3662,-319.5523 98.3184,-434.893137 15.7381,-28.835209 32.8779,-54.5114789 51.1262,-76.806079 18.2482,-22.294601 37.6048,-41.207532 57.7762,-56.516062 20.1714,-15.30853 45.1577,-27.012659 66.6654,-34.889652 m -296.3389,1037.82009 c -69.6133,-115.29364 -108.7217,-271.66535 -108.7217,-434.71516 0,-163.0498 39.1084,-319.4215 108.7217,-434.715128 17.4033,-28.823407 36.3568,-54.4891688 56.5359,-76.774646 20.1792,-22.285476 41.5839,-41.190668 63.8898,-56.492936 22.3058,-15.302267 45.5127,-27.001609 69.2962,-34.87539 M -3662.199,931.36277 c -69.6133,-115.29364 -108.7217,-271.66538 -108.7217,-434.71522 0,-163.04983 39.1084,-319.42155 108.7217,-434.715186 69.6134,-115.293633 164.0294,-180.064914 262.4775,-180.064914 l 67.1579,11.922 c 23.7835,-7.87378 49.0209,-15.13628 78.8269,-14.422 29.806,0.71428 33.8615,11.67517 33.8615,11.67517 21.5077,-7.877 31.3796,-7.9983 55.7223,-9.42687 24.3427,-1.42857 54.8137,15.03895 62.1559,11.09502 7.3422,-3.94394 21.2514,-11.58618 44.9208,-11.94332 23.6694,-0.35714 60.9929,28.555384 62.9725,25.634369 1.9796,-2.921015 7.9818,-10.752279 12.0536,-14.702819 8.1436,-7.90103 16.4847,-11.96334 24.9121,-11.96335 m -785.0117,1051.62712 c -69.6133,-115.29364 -108.7217,-271.66538 -108.7217,-434.71522 0,-163.04983 39.1084,-319.42155 108.7217,-434.715186 69.6134,-115.293633 164.0294,-180.064914 262.4775,-180.064914"
         style="opacity:1;fill:none;fill-opacity:1;fill-rule:evenodd;stroke:#8d3c19;stroke-width:17.71653557;stroke-linecap:round;stroke-linejoin:round;stroke-miterlimit:4;stroke-dasharray:none;stroke-dashoffset:0;stroke-opacity:1"
         id="ellipse4327" />
      <path
         inkscape:connector-curvature="0"
         id="left-eye"
         d="m -3314.2852,40.934471 a 162.85715,162.85715 0 0 0 -162.8574,162.855399 162.85715,162.85715 0 0 0 131.3906,159.74612 88.755112,88.755112 0 0 1 -53.0039,-81.17382 88.755112,88.755112 0 0 1 88.7559,-88.7559 88.755112,88.755112 0 0 1 88.7559,88.7559 88.755112,88.755112 0 0 1 -44.0469,76.54687 162.85715,162.85715 0 0 0 113.8633,-155.11917 162.85715,162.85715 0 0 0 -162.8575,-162.855399 z"
         style="opacity:1;fill:#ffe743;fill-opacity:1;fill-rule:evenodd;stroke:#000000;stroke-width:17.71653557;stroke-linecap:butt;stroke-linejoin:round;stroke-miterlimit:4;stroke-dasharray:none;stroke-dashoffset:0;stroke-opacity:1" />
      <path
         style="opacity:1;fill:#ffe743;fill-opacity:1;fill-rule:evenodd;stroke:#000000;stroke-width:17.71653557;stroke-linecap:butt;stroke-linejoin:round;stroke-miterlimit:4;stroke-dasharray:none;stroke-dashoffset:0;stroke-opacity:1"
         d="m -2594.2852,40.934471 a 162.85715,162.85715 0 0 0 -162.8574,162.855399 162.85715,162.85715 0 0 0 131.3906,159.74612 88.755112,88.755112 0 0 1 -53.0039,-81.17382 88.755112,88.755112 0 0 1 88.7559,-88.7559 88.755112,88.755112 0 0 1 88.7559,88.7559 88.755112,88.755112 0 0 1 -44.0469,76.54687 162.85715,162.85715 0 0 0 113.8633,-155.11917 162.85715,162.85715 0 0 0 -162.8575,-162.855399 z"
         id="right-eye"
         inkscape:connector-curvature="0" />
      <path
         style="opacity:1;fill:none;fill-opacity:1;fill-rule:evenodd;stroke:#000000;stroke-width:17.71653557;stroke-linecap:round;stroke-linejoin:round;stroke-miterlimit:4;stroke-dasharray:none;stroke-dashoffset:0;stroke-opacity:1"
         d="m -3551.4742,612.24919 129.6676,100.11214 115.4609,-81.31641 166.2539,95.60352 162.1914,-84.12305 169.2363,89.83594 175.457,-116.51833 151.6856,105.09059 136.4754,-131.40474"
         id="path4371"
         inkscape:connector-curvature="0"
         sodipodi:nodetypes="ccccccccc" />
      <path
         sodipodi:nodetypes="cscscccccccccccssccccccscsssssccssccscccsscccccccccccccsccccccccssccccc"
         inkscape:connector-curvature="0"
         d="m -2957.138,-120.26435 c 8.4274,-2e-5 16.7685,4.06221 24.9122,11.96327 8.1437,7.90106 17.7277,24.99627 17.7277,24.99627 21.9249,-24.10843 55.1959,-35.66221 71.5752,-35.92774 16.3793,-0.26553 33.1059,3.7291 44.9208,11.94332 l 62.1559,-11.09502 95.6552,0.2517 c 24.612,0 48.972,4.04821 72.7555,11.92198 l 67.1581,-11.92198 c 24.612,10e-6 48.972,4.04822 72.7555,11.922 m -370.4802,-1.07868 -44.9208,-11.94332 m 172.8704,12.77514 c -21.5077,-7.87699 -43.5367,-11.92685 -65.7937,-11.92684 m 577.9968,1049.74696 c 69.6133,-115.29364 108.7217,-271.66535 108.7217,-434.71516 0,-163.0498 -39.1084,-319.4215 -108.7217,-434.715128 -69.6133,-115.293632 -164.0293,-180.064932 -262.4774,-180.064972 m -1062.8787,15.42325 c 6.4869,-2.85616 13.8232,-5.52191 22.0892,-7.80683 m 0,0 c 16.5319,-4.56985 36.7828,-7.61642 61.3948,-7.61642 l 67.1579,11.922 c 23.7835,-7.87378 49.0209,-15.13628 78.8269,-14.422 29.806,0.71428 33.8615,11.67517 33.8615,11.67517 21.5077,-7.877 31.3796,-7.9983 55.7223,-9.42687 24.3427,-1.42857 54.8137,15.03895 62.1559,11.09502 7.3422,-3.94394 21.2514,-11.58618 44.9208,-11.94332 23.6694,-0.35714 60.9929,28.55538 62.9725,25.63437 1.9796,-2.92102 7.9818,-10.75228 12.0536,-14.70282 8.1436,-7.90103 16.4847,-11.96334 24.9121,-11.96335 m -785.0117,1051.62712 c -69.6133,-115.29364 -108.7217,-271.66538 -108.7217,-434.71522 0,-163.04983 39.1084,-319.42155 108.7217,-434.715186 69.6134,-115.293634 164.0294,-180.064914 262.4775,-180.064914 m 522.5342,1231.69205 c -8.4274,0 -16.7685,-4.0623 -24.9122,-11.9634 -4.0718,-3.9505 -8.0943,-8.8608 -12.0535,-14.7028 m 196.1017,13.6911 c -14.6845,7.8879 -29.836,8.4073 -44.9209,11.9433 0,0 -38.0637,-2.0167 -63.5752,-27.9277 -7.447,-7.5637 -2.7446,-6.8862 -28.7582,22.047 -8.4176,9.3623 -32.1421,7.4176 -21.8817,6.9125 m 287.0855,-13.8071 c -21.5076,7.877 -43.5367,11.9269 -65.7937,11.9269 l -62.1558,-11.0949 m 230.5665,-1.0787 c -23.7835,7.8738 -48.1435,11.922 -72.7555,11.922 l -29.8615,-11.6753 m 102.617,-0.2467 67.1581,11.922 c 24.612,0 48.972,-4.0482 72.7555,-11.922 m 7.1951,11.922 c 98.4481,0 192.8641,-64.7714 262.4774,-180.065 m -944.1477,169.2217 c 14.6845,7.8878 42.0653,11.4482 44.9209,11.9433 21.3722,3.7055 52.906,-8.1619 60.9725,-23.6344 m -233.8429,10.8591 c 21.5077,7.877 43.5367,11.9269 65.7937,11.9269 l 62.1558,-11.0949 m -127.9495,-0.832 -29.8615,11.6753 c -24.6121,0 -48.9721,-4.0482 -72.7555,-11.922 m -145.1233,-0.088 c 11.8005,4.8129 24.3968,7.7516 35.9472,9.5308 11.5504,1.7792 22.055,2.399 29.6719,2.5739 7.617,0.1749 12.3463,-0.095 12.3463,-0.095 l 67.1579,-11.922 c -23.7835,-7.8738 -16.9904,-1.5732 -39.2962,-16.8754 m -107.8124,28.7974 c -98.4481,0 -192.8641,-64.7713 -262.4775,-180.0649"
         style="opacity:1;fill:none;fill-opacity:1;fill-rule:evenodd;stroke:#000000;stroke-width:17.71653557;stroke-linecap:round;stroke-linejoin:round;stroke-miterlimit:4;stroke-dasharray:none;stroke-dashoffset:0;stroke-opacity:1"
         id="path4154" />
    </g>
  </g>
</svg>
