<?xml version="1.0" encoding="UTF-8" standalone="no"?>
<!-- Created with Inkscape (http://www.inkscape.org/) -->

<svg
   xmlns:dc="http://purl.org/dc/elements/1.1/"
   xmlns:cc="http://creativecommons.org/ns#"
   xmlns:rdf="http://www.w3.org/1999/02/22-rdf-syntax-ns#"
   xmlns:svg="http://www.w3.org/2000/svg"
   xmlns="http://www.w3.org/2000/svg"
   xmlns:sodipodi="http://sodipodi.sourceforge.net/DTD/sodipodi-0.dtd"
   xmlns:inkscape="http://www.inkscape.org/namespaces/inkscape"
   width="263.49307mm"
   height="216.07973mm"
   viewBox="0 0 933.63689 765.63685"
   id="svg2"
   version="1.1"
   inkscape:version="0.91 r13725"
   sodipodi:docname="ps4_oda.svg">
  <defs
     id="defs4" />
  <sodipodi:namedview
     id="base"
     pagecolor="#ffffff"
     bordercolor="#666666"
     borderopacity="1.0"
     inkscape:pageopacity="0"
     inkscape:pageshadow="2"
     inkscape:zoom="1.0169356"
     inkscape:cx="466.81839"
     inkscape:cy="382.8184"
     inkscape:document-units="px"
     inkscape:current-layer="g4378"
     showgrid="false"
     showguides="false"
     inkscape:guide-bbox="true"
     fit-margin-top="0.5"
     fit-margin-left="0.5"
     fit-margin-right="0.5"
     fit-margin-bottom="0.5"
     inkscape:window-width="1920"
     inkscape:window-height="957"
     inkscape:window-x="0"
     inkscape:window-y="1"
     inkscape:window-maximized="1">
    <sodipodi:guide
       position="428.1639,400.29324"
       orientation="1,0"
       id="guide4200" />
    <sodipodi:guide
       position="-534.51153,730.61313"
       orientation="1,0"
       id="guide4217" />
  </sodipodi:namedview>
  <metadata
     id="metadata7">
    <rdf:RDF>
      <cc:Work
         rdf:about="">
        <dc:format>image/svg+xml</dc:format>
        <dc:type
           rdf:resource="http://purl.org/dc/dcmitype/StillImage" />
        <dc:title></dc:title>
      </cc:Work>
    </rdf:RDF>
  </metadata>
  <g
     inkscape:label="Layer 1"
     inkscape:groupmode="layer"
     id="layer1"
     transform="translate(40.265294,200.90541)">
    <g
       id="g4378">
      <g
         id="g4178"
         transform="matrix(1.5,0,0,1.5,19.24682,-281.47988)">
        <path
           style="opacity:1;fill:#ffffff;fill-opacity:1;fill-rule:evenodd;stroke:#f1f1f1;stroke-width:2.79086661;stroke-linecap:butt;stroke-linejoin:round;stroke-miterlimit:4;stroke-dasharray:none;stroke-dashoffset:0;stroke-opacity:1"
           d="M 67.480469,-30.441406 C 7.1315738,-30.442031 -41.79109,37.475362 -41.791016,121.25586 c 0.04665,62.361 27.578991,118.32912 69.402344,141.08203 -6.402811,14.83094 -9.688683,30.18232 -9.763672,45.61523 1.99e-4,92.1638 112.070714,166.87718 250.316404,166.87696 138.2457,2.2e-4 250.31621,-74.71316 250.31641,-166.87696 -0.0506,-15.85628 -3.49081,-31.62683 -10.2168,-46.83593 40.6686,-23.54206 67.17284,-78.69076 67.2168,-139.86133 7e-5,-83.780501 -48.92259,-151.697895 -109.27149,-151.697266 -60.34813,8.74e-4 -92.29904,33.3736717 -109.26953,91.697266 0.0434,10.588375 0.88523,21.141346 2.51172,31.48633 C 330.38146,85.088208 299.41872,81.13133 268.16406,81.07617 235.94792,81.11054 204.04463,85.29053 174.20508,93.38672 175.87527,82.832833 176.72842,72.06141 176.75,61.25586 162.60794,-4.1388027 127.8286,-30.440533 67.480469,-30.441406 Z"
           transform="translate(4.6928087,86.734256)"
           id="path4337"
           inkscape:connector-curvature="0"
           sodipodi:nodetypes="scccscccscccccs" />
        <rect
           style="opacity:1;fill:none;fill-opacity:1;fill-rule:evenodd;stroke:#858585;stroke-width:3.2475698;stroke-linecap:butt;stroke-linejoin:round;stroke-miterlimit:4;stroke-dasharray:none;stroke-dashoffset:0;stroke-opacity:1"
           id="button-17"
           width="231.7243"
           height="107.86716"
           x="156.99498"
           y="203.6429"
           ry="5.3874803"
           rx="5.3874803" />
        <rect
           rx="5.3874798"
           ry="5.3874798"
           y="204.84422"
           x="401.00815"
           height="31.871992"
           width="19.697975"
           id="button-9"
           style="opacity:1;fill:none;fill-opacity:1;fill-rule:evenodd;stroke:#858585;stroke-width:3.54330707;stroke-linecap:butt;stroke-linejoin:round;stroke-miterlimit:4;stroke-dasharray:none;stroke-dashoffset:0;stroke-opacity:1" />
        <rect
           style="opacity:1;fill:none;fill-opacity:1;fill-rule:evenodd;stroke:#858585;stroke-width:3.54330707;stroke-linecap:butt;stroke-linejoin:round;stroke-miterlimit:4;stroke-dasharray:none;stroke-dashoffset:0;stroke-opacity:1"
           id="button-8"
           width="19.697975"
           height="31.871992"
           x="125.00815"
           y="204.84422"
           ry="5.3874798"
           rx="5.3874798" />
        <circle
           style="opacity:1;fill:none;fill-opacity:1;fill-rule:evenodd;stroke:#858585;stroke-width:3.54330707;stroke-linecap:butt;stroke-linejoin:round;stroke-miterlimit:4;stroke-dasharray:none;stroke-dashoffset:0;stroke-opacity:1"
           id="button-2"
           cx="430.90228"
           cy="287.90897"
           r="14.647212" />
        <circle
           r="14.647212"
           cy="287.90897"
           cx="510.90228"
           id="button-1"
           style="opacity:1;fill:none;fill-opacity:1;fill-rule:evenodd;stroke:#858585;stroke-width:3.54330707;stroke-linecap:butt;stroke-linejoin:round;stroke-miterlimit:4;stroke-dasharray:none;stroke-dashoffset:0;stroke-opacity:1" />
        <circle
           style="opacity:1;fill:none;fill-opacity:1;fill-rule:evenodd;stroke:#858585;stroke-width:3.54330707;stroke-linecap:butt;stroke-linejoin:round;stroke-miterlimit:4;stroke-dasharray:none;stroke-dashoffset:0;stroke-opacity:1"
           id="button-3"
           cx="470.90228"
           cy="247.90897"
           r="14.647212" />
        <circle
           r="14.647212"
           cy="327.90897"
           cx="470.90228"
           id="button-0"
           style="opacity:1;fill:none;fill-opacity:1;fill-rule:evenodd;stroke:#858585;stroke-width:3.54330707;stroke-linecap:butt;stroke-linejoin:round;stroke-miterlimit:4;stroke-dasharray:none;stroke-dashoffset:0;stroke-opacity:1" />
        <circle
           style="opacity:1;fill:none;fill-opacity:1;fill-rule:evenodd;stroke:#858585;stroke-width:3.54330707;stroke-linecap:butt;stroke-linejoin:round;stroke-miterlimit:4;stroke-dasharray:none;stroke-dashoffset:0;stroke-opacity:1"
           id="button-16"
           cx="272.85715"
           cy="394.68689"
           r="14.647212"
           inkscape:label="button-16" />
        <circle
           r="28.840052"
           cy="373.28204"
           cx="156.74483"
           id="button-10"
           style="opacity:1;fill:none;fill-opacity:1;fill-rule:evenodd;stroke:#858585;stroke-width:3.54330707;stroke-linecap:butt;stroke-linejoin:round;stroke-miterlimit:4;stroke-dasharray:none;stroke-dashoffset:0;stroke-opacity:1" />
        <circle
           style="opacity:1;fill:none;fill-opacity:1;fill-rule:evenodd;stroke:#858585;stroke-width:3.54330707;stroke-linecap:butt;stroke-linejoin:round;stroke-miterlimit:4;stroke-dasharray:none;stroke-dashoffset:0;stroke-opacity:1"
           id="button-11"
           cx="387.44482"
           cy="373.28204"
           r="28.840052" />
        <path
           style="opacity:1;fill:none;fill-opacity:1;fill-rule:evenodd;stroke:#858585;stroke-width:3.54330707;stroke-linecap:butt;stroke-linejoin:round;stroke-miterlimit:4;stroke-dasharray:none;stroke-dashoffset:0;stroke-opacity:1"
           d="m 28.873626,274.90185 22.104859,0 c 0,0 17.492495,11.18991 17.577187,14.06175 -0.362531,2.55955 -17.177673,11.95248 -17.577187,11.95248 l -22.104859,0 c -3.116084,0 -5.6247,-2.50861 -5.6247,-5.6247 l 0,-14.76483 c 0,-3.11609 2.508616,-5.6247 5.6247,-5.6247 z"
           id="button-14"
           inkscape:connector-curvature="0"
           sodipodi:nodetypes="sccsssss" />
        <path
           sodipodi:nodetypes="sccsssss"
           inkscape:connector-curvature="0"
           id="button-15"
           d="m 120.93097,274.90185 -22.104857,0 c 0,0 -17.492495,11.18991 -17.577187,14.06175 0.362531,2.55955 17.177673,11.95248 17.577187,11.95248 l 22.104857,0 c 3.11609,0 5.6247,-2.50861 5.6247,-5.6247 l 0,-14.76483 c 0,-3.11609 -2.50861,-5.6247 -5.6247,-5.6247 z"
           style="opacity:1;fill:none;fill-opacity:1;fill-rule:evenodd;stroke:#858585;stroke-width:3.54330707;stroke-linecap:butt;stroke-linejoin:round;stroke-miterlimit:4;stroke-dasharray:none;stroke-dashoffset:0;stroke-opacity:1" />
        <path
           sodipodi:nodetypes="sccsssss"
           inkscape:connector-curvature="0"
           id="button-12"
           d="m 88.909414,240.88029 0,22.10486 c 0,0 -11.18991,17.4925 -14.06175,17.57719 -2.55955,-0.36253 -11.95248,-17.17768 -11.95248,-17.57719 l 0,-22.10486 c 0,-3.11608 2.50861,-5.6247 5.6247,-5.6247 l 14.76483,0 c 3.11609,0 5.6247,2.50862 5.6247,5.6247 z"
           style="opacity:1;fill:none;fill-opacity:1;fill-rule:evenodd;stroke:#858585;stroke-width:3.54330707;stroke-linecap:butt;stroke-linejoin:round;stroke-miterlimit:4;stroke-dasharray:none;stroke-dashoffset:0;stroke-opacity:1" />
        <path
           style="opacity:1;fill:none;fill-opacity:1;fill-rule:evenodd;stroke:#858585;stroke-width:3.54330707;stroke-linecap:butt;stroke-linejoin:round;stroke-miterlimit:4;stroke-dasharray:none;stroke-dashoffset:0;stroke-opacity:1"
           d="m 88.909414,334.93764 0,-22.10486 c 0,0 -11.18991,-17.4925 -14.06175,-17.57719 -2.55955,0.36253 -11.95248,17.17768 -11.95248,17.57719 l 0,22.10486 c 0,3.11608 2.50861,5.6247 5.6247,5.6247 l 14.76483,0 c 3.11609,0 5.6247,-2.50862 5.6247,-5.6247 z"
           id="button-13"
           inkscape:connector-curvature="0"
           sodipodi:nodetypes="sccsssss"
           inkscape:label="#button-13" />
        <path
           style="opacity:1;fill:none;fill-opacity:1;fill-rule:evenodd;stroke:#858585;stroke-width:3.54330707;stroke-linecap:butt;stroke-linejoin:round;stroke-miterlimit:4;stroke-dasharray:none;stroke-dashoffset:0;stroke-opacity:1"
           d="m 74.822278,142.36201 c -20.792052,1.2e-4 -37.647504,6.81922 -37.64864,15.23127 l 0.188265,14.81673 c 0,0 26.005571,-4.81528 38.035172,-4.81528 12.430614,0 37.233885,4.81528 37.233885,4.81528 0,0 -0.017,-11.45304 -0.0747,-14.59402 -0.15302,-8.32192 -18.483883,-15.44523 -37.733964,-15.45398 z"
           id="button-4"
           inkscape:connector-curvature="0"
           sodipodi:nodetypes="cccscsc" />
        <path
           style="opacity:1;fill:none;fill-opacity:1;fill-rule:evenodd;stroke:#858585;stroke-width:3.54330707;stroke-linecap:butt;stroke-linejoin:round;stroke-miterlimit:4;stroke-dasharray:none;stroke-dashoffset:0;stroke-opacity:1"
           d="m 74.902923,88.50591 c -13.911244,-2.7e-4 -25.188735,15.61411 -25.189082,34.87584 0.0075,3.41944 0.378238,6.81877 1.100177,10.08887 7.686639,-2.7242 14.566288,-3.65742 23.442038,-3.66892 9.44339,0.0104 15.895663,0.8412 24.532221,4.56179 0.855879,-3.54046 1.295633,-7.24823 1.302483,-10.98174 C 100.09041,104.1207 88.813676,88.5066 74.902923,88.50591 Z"
           id="button-6"
           inkscape:connector-curvature="0"
           sodipodi:nodetypes="ccccccc"
           inkscape:label="#button-6" />
        <path
           sodipodi:nodetypes="cccscsc"
           inkscape:connector-curvature="0"
           id="button-5"
           d="m 470.82226,142.36201 c -20.79205,1.2e-4 -37.64751,6.81922 -37.64864,15.23127 l 0.18826,14.81673 c 0,0 26.00557,-4.81528 38.03518,-4.81528 12.43061,0 37.23388,4.81528 37.23388,4.81528 0,0 -0.017,-11.45304 -0.0747,-14.59402 -0.15302,-8.32192 -18.48388,-15.44523 -37.73396,-15.45398 z"
           style="opacity:1;fill:none;fill-opacity:1;fill-rule:evenodd;stroke:#858585;stroke-width:3.54330707;stroke-linecap:butt;stroke-linejoin:round;stroke-miterlimit:4;stroke-dasharray:none;stroke-dashoffset:0;stroke-opacity:1" />
        <path
           sodipodi:nodetypes="ccccccc"
           inkscape:connector-curvature="0"
           id="button-7"
           d="m 470.9029,88.50591 c -13.91124,-2.7e-4 -25.18873,15.61411 -25.18908,34.87584 0.007,3.41944 0.37824,6.81877 1.10018,10.08887 7.68664,-2.7242 14.56629,-3.65742 23.44204,-3.66892 9.44339,0.0104 15.89566,0.8412 24.53222,4.56179 0.85588,-3.54046 1.29563,-7.24823 1.30248,-10.98174 C 496.09039,104.1207 484.81366,88.5066 470.9029,88.50591 Z"
           style="opacity:1;fill:none;fill-opacity:1;fill-rule:evenodd;stroke:#858585;stroke-width:3.54330707;stroke-linecap:butt;stroke-linejoin:round;stroke-miterlimit:4;stroke-dasharray:none;stroke-dashoffset:0;stroke-opacity:1" />
        <g
           id="g4368">
          <circle
             r="68.437836"
             cy="287.90897"
             cx="74.902298"
             id="path4182"
             style="opacity:1;fill:none;fill-opacity:1;fill-rule:evenodd;stroke:#f1f1f1;stroke-width:3.54330707;stroke-linecap:butt;stroke-linejoin:round;stroke-miterlimit:4;stroke-dasharray:none;stroke-dashoffset:0;stroke-opacity:1" />
          <circle
             style="opacity:1;fill:none;fill-opacity:1;fill-rule:evenodd;stroke:#f1f1f1;stroke-width:3.54330707;stroke-linecap:butt;stroke-linejoin:round;stroke-miterlimit:4;stroke-dasharray:none;stroke-dashoffset:0;stroke-opacity:1"
             id="circle4184"
             cx="470.90228"
             cy="287.90897"
             r="68.437836" />
          <circle
             style="opacity:1;fill:none;fill-opacity:1;fill-rule:evenodd;stroke:#f1f1f1;stroke-width:3.54330707;stroke-linecap:butt;stroke-linejoin:round;stroke-miterlimit:4;stroke-dasharray:none;stroke-dashoffset:0;stroke-opacity:1"
             id="circle4230"
             cx="156.74483"
             cy="373.28204"
             r="46.018215" />
          <circle
             r="46.018215"
             cy="373.28204"
             cx="387.44482"
             id="circle4232"
             style="opacity:1;fill:none;fill-opacity:1;fill-rule:evenodd;stroke:#f1f1f1;stroke-width:3.54330707;stroke-linecap:butt;stroke-linejoin:round;stroke-miterlimit:4;stroke-dasharray:none;stroke-dashoffset:0;stroke-opacity:1" />
        </g>
        <g
           id="g4248">
          <path
             sodipodi:nodetypes="cc"
             inkscape:connector-curvature="0"
             id="path4238"
             d="m 189,440.3622 0,51"
             style="fill:none;fill-rule:evenodd;stroke:#f1f1f1;stroke-width:3.54330707;stroke-linecap:butt;stroke-linejoin:miter;stroke-miterlimit:4;stroke-dasharray:none;stroke-opacity:1" />
          <path
             sodipodi:nodetypes="cc"
             style="fill:none;fill-rule:evenodd;stroke:#f1f1f1;stroke-width:3.54330707;stroke-linecap:butt;stroke-linejoin:miter;stroke-miterlimit:4;stroke-dasharray:none;stroke-opacity:1"
             d="m 221,440.3622 0,65"
             id="path4240"
             inkscape:connector-curvature="0" />
          <path
             sodipodi:nodetypes="cc"
             inkscape:connector-curvature="0"
             id="path4242"
             d="m 273,440.3622 0,73"
             style="fill:none;fill-rule:evenodd;stroke:#f1f1f1;stroke-width:3.54330707;stroke-linecap:butt;stroke-linejoin:miter;stroke-miterlimit:4;stroke-dasharray:none;stroke-opacity:1" />
          <path
             sodipodi:nodetypes="cc"
             style="fill:none;fill-rule:evenodd;stroke:#f1f1f1;stroke-width:3.54330707;stroke-linecap:butt;stroke-linejoin:miter;stroke-miterlimit:4;stroke-dasharray:none;stroke-opacity:1"
             d="m 363,440.3622 0,51"
             id="path4244"
             inkscape:connector-curvature="0" />
          <path
             sodipodi:nodetypes="cc"
             inkscape:connector-curvature="0"
             id="path4246"
             d="m 323,440.3622 0,67"
             style="fill:none;fill-rule:evenodd;stroke:#f1f1f1;stroke-width:3.54330707;stroke-linecap:butt;stroke-linejoin:miter;stroke-miterlimit:4;stroke-dasharray:none;stroke-opacity:1" />
          <path
             style="fill:none;fill-rule:evenodd;stroke:#f1f1f1;stroke-width:3.54330707;stroke-linecap:butt;stroke-linejoin:miter;stroke-miterlimit:4;stroke-dasharray:none;stroke-opacity:1"
             d="m 172.52955,476.8622 207.43066,0"
             id="path4374"
             inkscape:connector-curvature="0"
             sodipodi:nodetypes="cc" />
          <path
             d="m 396,440.36218 a 120,74 0 0 1 -60,64.08588 120,74 0 0 1 -120,0 120,74 0 0 1 -60,-64.08588 l 120,0 z"
             sodipodi:end="3.1415927"
             sodipodi:start="0"
             sodipodi:ry="74"
             sodipodi:rx="120"
             sodipodi:cy="440.36218"
             sodipodi:cx="276"
             sodipodi:type="arc"
             id="path4234"
             style="opacity:1;fill:none;fill-opacity:1;fill-rule:evenodd;stroke:#8e8e8e;stroke-width:3.54330707;stroke-linecap:butt;stroke-linejoin:round;stroke-miterlimit:4;stroke-dasharray:none;stroke-dashoffset:0;stroke-opacity:1" />
        </g>
        <circle
           style="opacity:1;fill:#000000;fill-opacity:1;fill-rule:evenodd;stroke:none;stroke-width:1.00602961;stroke-linecap:butt;stroke-linejoin:round;stroke-miterlimit:4;stroke-dasharray:none;stroke-dashoffset:0;stroke-opacity:1"
           id="left-thumb"
           cx="156.74483"
           cy="373.28204"
           r="8.1883802"
           inkscape:label="#axis-0 #axis-1" />
        <circle
           r="8.1883802"
           cy="373.28204"
           cx="387.44482"
           id="right-thumb"
           style="opacity:1;fill:#000000;fill-opacity:1;fill-rule:evenodd;stroke:none;stroke-width:1.00602961;stroke-linecap:butt;stroke-linejoin:round;stroke-miterlimit:4;stroke-dasharray:none;stroke-dashoffset:0;stroke-opacity:1"
           inkscape:label="#axis-2 #axis-3" />
      </g>
    </g>
  </g>
</svg>
