<?xml version="1.0" encoding="UTF-8" standalone="no"?>
<!-- Created with Inkscape (http://www.inkscape.org/) -->

<svg
   xmlns:dc="http://purl.org/dc/elements/1.1/"
   xmlns:cc="http://creativecommons.org/ns#"
   xmlns:rdf="http://www.w3.org/1999/02/22-rdf-syntax-ns#"
   xmlns:svg="http://www.w3.org/2000/svg"
   xmlns="http://www.w3.org/2000/svg"
   xmlns:sodipodi="http://sodipodi.sourceforge.net/DTD/sodipodi-0.dtd"
   xmlns:inkscape="http://www.inkscape.org/namespaces/inkscape"
   width="263.49307mm"
   height="216.07973mm"
   viewBox="0 0 933.63689 765.63685"
   id="svg2"
   version="1.1"
   inkscape:version="0.91 r13725"
   sodipodi:docname="ps4_oda_animated_smile.svg">
  <defs
     id="defs4" />
  <sodipodi:namedview
     id="base"
     pagecolor="#ffffff"
     bordercolor="#666666"
     borderopacity="1.0"
     inkscape:pageopacity="0"
     inkscape:pageshadow="2"
     inkscape:zoom="0.98180813"
     inkscape:cx="466.81839"
     inkscape:cy="209.44236"
     inkscape:document-units="px"
     inkscape:current-layer="layer1"
     showgrid="false"
     showguides="false"
     inkscape:guide-bbox="true"
     fit-margin-top="0.5"
     fit-margin-left="0.5"
     fit-margin-right="0.5"
     fit-margin-bottom="0.5"
     inkscape:window-width="1920"
     inkscape:window-height="957"
     inkscape:window-x="0"
     inkscape:window-y="1"
     inkscape:window-maximized="1">
    <sodipodi:guide
       position="428.1639,400.29324"
       orientation="1,0"
       id="guide4200" />
    <sodipodi:guide
       position="-534.51153,730.61313"
       orientation="1,0"
       id="guide4217" />
  </sodipodi:namedview>
  <metadata
     id="metadata7">
    <rdf:RDF>
      <cc:Work
         rdf:about="">
        <dc:format>image/svg+xml</dc:format>
        <dc:type
           rdf:resource="http://purl.org/dc/dcmitype/StillImage" />
        <dc:title></dc:title>
      </cc:Work>
    </rdf:RDF>
  </metadata>
  <g
     inkscape:label="Layer 1"
     inkscape:groupmode="layer"
     id="layer1"
     transform="translate(40.265294,200.90541)">
    <g
       id="g4453"
       transform="translate(498.97782,-468.01191)">
      <rect
         style="opacity:1;fill:#ec4454;fill-opacity:1;fill-rule:evenodd;stroke:none;stroke-width:7.08661413;stroke-linecap:butt;stroke-linejoin:round;stroke-miterlimit:4;stroke-dasharray:none;stroke-dashoffset:0;stroke-opacity:1"
         id="rect4455"
         width="382.08475"
         height="265.13022"
         x="-261.55862"
         y="730.31531"
         rx="18.683599"
         ry="20.650299" />
      <path
         style="opacity:1;fill:#cd1527;fill-opacity:1;fill-rule:evenodd;stroke:none;stroke-width:7.08661413;stroke-linecap:butt;stroke-linejoin:round;stroke-miterlimit:4;stroke-dasharray:none;stroke-dashoffset:0;stroke-opacity:1"
         d="M -49.806641,973.31445 A 108.17707,102.74351 0 0 0 -136.33203,1073.8672 108.17707,102.74351 0 0 0 -28.15625,1176.6113 108.17707,102.74351 0 0 0 80.021484,1073.8672 108.17707,102.74351 0 0 0 -5.0703125,973.55859 c -3.9305337,6.27122 -7.1117375,12.79821 -7.7734375,18.31055 -1.489358,12.40716 12.43480972,23.08356 11.85546875,35.56636 -0.41698795,8.9847 -3.25377995,19.9083 -10.86718775,24.6973 -8.367032,5.263 -21.48938,4.6088 -29.636719,-0.9883 -7.662717,-5.2641 -10.336685,-16.404 -10.867187,-25.6855 -0.665967,-11.6516 10.711055,-21.9489 9.878906,-33.58986 -0.69477,-9.71913 -0.351225,-6.31037 -7.326172,-18.55469 z"
         transform="translate(-40.265294,-200.90544)"
         id="path4457"
         inkscape:connector-curvature="0" />
      <path
         style="opacity:1;fill:#ff8484;fill-opacity:1;fill-rule:evenodd;stroke:#e16b6b;stroke-width:8.23805428;stroke-linecap:butt;stroke-linejoin:round;stroke-miterlimit:4;stroke-dasharray:none;stroke-dashoffset:0;stroke-opacity:1"
         d="m -30.698858,906.47732 c 33.6159914,0 20.867133,12.87672 20.8671319,63.3007 -6.3e-6,50.42398 -24.4568929,44.75528 -58.0728779,44.75528 -33.615976,0 -63.661376,5.6687 -63.661386,-44.75528 0,-50.42398 -12.74886,-63.3007 20.86713,-63.3007 31.218323,0 24.12695,13.57993 39.012081,13.73421 15.463773,0.16027 9.769595,-13.73421 40.987921,-13.73421 z"
         id="path4459"
         inkscape:connector-curvature="0"
         sodipodi:nodetypes="sssssss" />
    </g>
    <path
       style="opacity:1;fill:#ffffff;fill-opacity:1;fill-rule:evenodd;stroke:#a6a6a6;stroke-width:7.08661461;stroke-linecap:butt;stroke-linejoin:round;stroke-miterlimit:4;stroke-dasharray:none;stroke-dashoffset:0;stroke-opacity:1"
       d="M 332.89258 640.70117 C 322.54187 640.70117 314.20898 649.90936 314.20898 661.34961 L 314.20898 674.73047 C 314.20898 686.17072 322.54187 695.38086 332.89258 695.38086 L 349.07031 695.38086 C 355.90517 695.38086 361.84269 691.35022 365.09961 685.32812 C 368.35653 691.35022 374.29209 695.38086 381.12695 695.38086 L 397.30664 695.38086 C 402.41249 695.38086 407.02087 693.13265 410.38672 689.48828 C 413.74837 693.10202 418.33639 695.33008 423.41797 695.33008 L 453.26367 695.33008 C 462.2282 695.33008 469.669 688.41716 471.50391 679.13477 C 473.33896 688.41694 480.7778 695.33008 489.74219 695.33008 L 519.58789 695.33008 C 525.85508 695.33008 531.36803 691.93996 534.75391 686.73633 C 538.13678 691.96905 543.66537 695.38086 549.95312 695.38086 L 566.13281 695.38086 C 573.74174 695.38086 580.2446 690.39419 583.16406 683.21289 C 586.08339 690.39458 592.59004 695.38086 600.19922 695.38086 L 616.37891 695.38086 C 626.72961 695.38086 635.0625 686.17072 635.0625 674.73047 L 635.0625 661.34961 C 635.0625 649.90936 626.72961 640.70117 616.37891 640.70117 L 600.19922 640.70117 C 592.59004 640.70117 586.08339 645.6855 583.16406 652.86719 C 580.2446 645.68589 573.74174 640.70117 566.13281 640.70117 L 549.95312 640.70117 C 543.66537 640.70117 538.13678 644.11102 534.75391 649.34375 C 531.36803 644.14011 525.85508 640.75 519.58789 640.75 L 489.74219 640.75 C 480.7778 640.75 473.33896 647.66314 471.50391 656.94531 C 469.669 647.66292 462.2282 640.75 453.26367 640.75 L 423.41797 640.75 C 418.33639 640.75 413.74837 642.97806 410.38672 646.5918 C 407.02087 642.94743 402.41249 640.70117 397.30664 640.70117 L 381.12695 640.70117 C 374.29209 640.70117 368.35653 644.72986 365.09961 650.75195 C 361.84269 644.72986 355.90517 640.70117 349.07031 640.70117 L 332.89258 640.70117 z "
       transform="translate(-40.265294,-200.90544)"
       id="lower-teeth" />
    <path
       style="opacity:1;fill:#ffffff;fill-opacity:1;fill-rule:evenodd;stroke:#a6a6a6;stroke-width:7.08661461;stroke-linecap:butt;stroke-linejoin:round;stroke-miterlimit:4;stroke-dasharray:none;stroke-dashoffset:0;stroke-opacity:1"
       d="M 297.70117 560.32812 C 287.35046 560.32812 279.01758 569.53822 279.01758 580.97852 L 279.01758 630.32812 C 279.01758 641.76842 287.35046 650.97852 297.70117 650.97852 L 313.61719 650.97852 C 316.90335 650.97852 319.98285 650.04539 322.66016 648.41211 C 325.33714 650.04487 328.41558 650.97852 331.70117 650.97852 L 347.61719 650.97852 C 354.46051 650.97852 360.40589 646.94078 363.66016 640.90625 C 366.91451 646.94032 372.85816 650.97852 379.70117 650.97852 L 395.61719 650.97852 C 400.74405 650.97852 405.37282 648.71392 408.74219 645.04297 C 412.10477 648.66338 416.69632 650.89648 421.7832 650.89648 L 451.30078 650.89648 C 460.26652 650.89648 467.70933 643.98152 469.54297 634.69727 C 471.3766 643.98152 478.81746 650.89648 487.7832 650.89648 L 517.30078 650.89648 C 523.57125 650.89648 529.08725 647.50319 532.47266 642.29492 C 535.85299 647.55136 541.39668 650.97852 547.70117 650.97852 L 563.61719 650.97852 C 571.23282 650.97852 577.74447 645.98451 580.66016 638.79297 C 583.57598 645.98412 590.08578 650.97852 597.70117 650.97852 L 613.61719 650.97852 C 616.50416 650.97852 619.22416 650.24246 621.66016 648.96094 C 624.09577 650.24195 626.8148 650.97852 629.70117 650.97852 L 645.61719 650.97852 C 655.96789 650.97852 664.30078 641.76842 664.30078 630.32812 L 664.30078 580.97852 C 664.30078 569.53822 655.96789 560.32812 645.61719 560.32812 L 629.70117 560.32812 C 626.8148 560.32812 624.09577 561.06469 621.66016 562.3457 C 619.22416 561.06418 616.50416 560.32812 613.61719 560.32812 L 597.70117 560.32812 C 590.08578 560.32812 583.57598 565.32252 580.66016 572.51367 C 577.74447 565.32213 571.23282 560.32812 563.61719 560.32812 L 547.70117 560.32812 C 541.39668 560.32812 535.85299 563.75528 532.47266 569.01172 C 529.08725 563.80342 523.57125 560.41016 517.30078 560.41016 L 487.7832 560.41016 C 478.81694 560.41016 471.37606 567.32624 469.54297 576.61133 C 467.70988 567.32624 460.26704 560.41016 451.30078 560.41016 L 421.7832 560.41016 C 416.69632 560.41016 412.10477 562.64324 408.74219 566.26367 C 405.37282 562.59272 400.74405 560.32812 395.61719 560.32812 L 379.70117 560.32812 C 372.85816 560.32812 366.91451 564.36632 363.66016 570.40039 C 360.40589 564.36586 354.46051 560.32812 347.61719 560.32812 L 331.70117 560.32812 C 328.41558 560.32812 325.33714 561.26177 322.66016 562.89453 C 319.98285 561.26125 316.90335 560.32812 313.61719 560.32812 L 297.70117 560.32812 z "
       transform="translate(-40.265294,-200.90544)"
       id="upper-teeth" />
    <path
       sodipodi:nodetypes="ssssssssscccssc"
       inkscape:connector-curvature="0"
       id="path4446"
       d="m 229.67835,260.48481 c -4.477,0 -8.08203,3.6051 -8.08203,8.0821 l 0,310.3555 c 0,4.4769 3.60503,8.082 8.08203,8.082 l 401.75977,0 c 4.47699,0 8.08008,-3.6051 8.08008,-8.082 l 0,-310.3555 c 0,-4.477 -3.60309,-8.0821 -8.08008,-8.0821 z m 20.87891,117.75 180,0 180,0 c 6e-5,39.6565 -34.30776,76.3007 -90,96.1289 -55.69219,19.8283 -124.3078,19.8283 -180,0 -55.69224,-19.8282 -90.00006,-56.4724 -90,-96.1289 z"
       style="opacity:1;fill:#ffffff;fill-opacity:1;fill-rule:evenodd;stroke:none;stroke-width:3.54330707;stroke-linecap:butt;stroke-linejoin:round;stroke-miterlimit:4;stroke-dasharray:none;stroke-dashoffset:0;stroke-opacity:1" />
    <path
       style="opacity:1;fill:none;fill-opacity:1;fill-rule:evenodd;stroke:#dbdbdb;stroke-width:10.62992189;stroke-linecap:butt;stroke-linejoin:round;stroke-miterlimit:4;stroke-dasharray:none;stroke-dashoffset:0;stroke-opacity:1"
       d="m 127.50674,-197.04061 c -90.523346,-9.4e-4 -163.907342,101.875153 -163.907231,227.5459 0.06997,93.5415 41.3684865,177.49368 104.103516,211.62305 -9.604216,22.2464 -14.533025,45.27348 -14.645508,68.42284 2.99e-4,138.2457 168.106073,250.31577 375.474603,250.31544 207.36855,3.3e-4 375.47432,-112.06974 375.47462,-250.31544 -0.0759,-23.78442 -5.23622,-47.44024 -15.3252,-70.25389 61.0029,-35.31309 100.75926,-118.03615 100.8252,-209.792 10e-5,-125.670752 -73.38389,-227.54684 -163.90724,-227.5459 -90.52219,10e-4 -138.44856,50.06051 -163.90429,137.5459 0.0651,15.882562 1.32784,31.712019 3.76758,47.229495 -43.60457,-11.480973 -90.04868,-17.41629 -136.93067,-17.49903 -48.32421,0.05156 -96.17914,6.32154 -140.93847,18.465825 2.50529,-15.830831 3.78501,-31.987965 3.81738,-48.19629 -21.21309,-98.09199 -73.3821,-137.54459 -163.90429,-137.5459 z"
       id="path4337"
       inkscape:connector-curvature="0"
       sodipodi:nodetypes="scccscccscccccs" />
    <rect
       style="opacity:1;fill:none;fill-opacity:1;fill-rule:evenodd;stroke:#858585;stroke-width:4.87135458;stroke-linecap:butt;stroke-linejoin:round;stroke-miterlimit:4;stroke-dasharray:none;stroke-dashoffset:0;stroke-opacity:1"
       id="button-17"
       width="347.58646"
       height="161.80074"
       x="254.73929"
       y="23.984468"
       ry="8.0812206"
       rx="8.0812206" />
    <rect
       rx="8.0812197"
       ry="8.0812197"
       y="25.786455"
       x="620.75903"
       height="47.807987"
       width="29.546963"
       id="button-9"
       style="opacity:1;fill:none;fill-opacity:1;fill-rule:evenodd;stroke:#858585;stroke-width:5.31496048;stroke-linecap:butt;stroke-linejoin:round;stroke-miterlimit:4;stroke-dasharray:none;stroke-dashoffset:0;stroke-opacity:1" />
    <rect
       style="opacity:1;fill:none;fill-opacity:1;fill-rule:evenodd;stroke:#858585;stroke-width:5.31496048;stroke-linecap:butt;stroke-linejoin:round;stroke-miterlimit:4;stroke-dasharray:none;stroke-dashoffset:0;stroke-opacity:1"
       id="button-8"
       width="29.546963"
       height="47.807987"
       x="206.75905"
       y="25.786455"
       ry="8.0812197"
       rx="8.0812197" />
    <circle
       style="opacity:1;fill:none;fill-opacity:1;fill-rule:evenodd;stroke:#858585;stroke-width:5.31496048;stroke-linecap:butt;stroke-linejoin:round;stroke-miterlimit:4;stroke-dasharray:none;stroke-dashoffset:0;stroke-opacity:1"
       id="button-2"
       cx="665.60022"
       cy="150.38358"
       r="21.970818" />
    <circle
       r="21.970818"
       cy="150.38358"
       cx="785.60022"
       id="button-1"
       style="opacity:1;fill:none;fill-opacity:1;fill-rule:evenodd;stroke:#858585;stroke-width:5.31496048;stroke-linecap:butt;stroke-linejoin:round;stroke-miterlimit:4;stroke-dasharray:none;stroke-dashoffset:0;stroke-opacity:1" />
    <circle
       style="opacity:1;fill:none;fill-opacity:1;fill-rule:evenodd;stroke:#858585;stroke-width:5.31496048;stroke-linecap:butt;stroke-linejoin:round;stroke-miterlimit:4;stroke-dasharray:none;stroke-dashoffset:0;stroke-opacity:1"
       id="button-3"
       cx="725.60022"
       cy="90.383568"
       r="21.970818" />
    <circle
       r="21.970818"
       cy="210.38358"
       cx="725.60022"
       id="button-0"
       style="opacity:1;fill:none;fill-opacity:1;fill-rule:evenodd;stroke:#858585;stroke-width:5.31496048;stroke-linecap:butt;stroke-linejoin:round;stroke-miterlimit:4;stroke-dasharray:none;stroke-dashoffset:0;stroke-opacity:1" />
    <circle
       style="opacity:1;fill:none;fill-opacity:1;fill-rule:evenodd;stroke:#858585;stroke-width:5.31496048;stroke-linecap:butt;stroke-linejoin:round;stroke-miterlimit:4;stroke-dasharray:none;stroke-dashoffset:0;stroke-opacity:1"
       id="button-16"
       cx="428.53253"
       cy="310.55045"
       r="21.970818"
       inkscape:label="button-16" />
    <circle
       r="43.260078"
       cy="278.44318"
       cx="254.36406"
       id="button-10"
       style="opacity:1;fill:none;fill-opacity:1;fill-rule:evenodd;stroke:#858585;stroke-width:5.31496048;stroke-linecap:butt;stroke-linejoin:round;stroke-miterlimit:4;stroke-dasharray:none;stroke-dashoffset:0;stroke-opacity:1" />
    <circle
       style="opacity:1;fill:none;fill-opacity:1;fill-rule:evenodd;stroke:#858585;stroke-width:5.31496048;stroke-linecap:butt;stroke-linejoin:round;stroke-miterlimit:4;stroke-dasharray:none;stroke-dashoffset:0;stroke-opacity:1"
       id="button-11"
       cx="600.41406"
       cy="278.44318"
       r="43.260078" />
    <path
       style="opacity:1;fill:none;fill-opacity:1;fill-rule:evenodd;stroke:#858585;stroke-width:5.31496048;stroke-linecap:butt;stroke-linejoin:round;stroke-miterlimit:4;stroke-dasharray:none;stroke-dashoffset:0;stroke-opacity:1"
       d="m 62.557259,130.8729 33.157289,0 c 0,0 26.238742,16.78486 26.365782,21.09262 -0.5438,3.83933 -25.766511,17.92872 -26.365782,17.92872 l -33.157289,0 c -4.674126,0 -8.43705,-3.76291 -8.43705,-8.43705 l 0,-22.14725 c 0,-4.67413 3.762924,-8.43705 8.43705,-8.43705 z"
       id="button-14"
       inkscape:connector-curvature="0"
       sodipodi:nodetypes="sccsssss" />
    <path
       sodipodi:nodetypes="sccsssss"
       inkscape:connector-curvature="0"
       id="button-15"
       d="m 200.64328,130.8729 -33.15729,0 c 0,0 -26.23874,16.78486 -26.36578,21.09262 0.5438,3.83933 25.76651,17.92872 26.36578,17.92872 l 33.15729,0 c 4.67413,0 8.43705,-3.76291 8.43705,-8.43705 l 0,-22.14725 c 0,-4.67413 -3.76292,-8.43705 -8.43705,-8.43705 z"
       style="opacity:1;fill:none;fill-opacity:1;fill-rule:evenodd;stroke:#858585;stroke-width:5.31496048;stroke-linecap:butt;stroke-linejoin:round;stroke-miterlimit:4;stroke-dasharray:none;stroke-dashoffset:0;stroke-opacity:1" />
    <path
       sodipodi:nodetypes="sccsssss"
       inkscape:connector-curvature="0"
       id="button-12"
       d="m 152.61094,79.840555 0,33.157285 c 0,0 -16.78486,26.23875 -21.09262,26.36579 -3.83933,-0.5438 -17.92872,-25.76652 -17.92872,-26.36579 l 0,-33.157285 c 0,-4.67412 3.76291,-8.43705 8.43705,-8.43705 l 22.14724,0 c 4.67414,0 8.43705,3.76293 8.43705,8.43705 z"
       style="opacity:1;fill:none;fill-opacity:1;fill-rule:evenodd;stroke:#858585;stroke-width:5.31496048;stroke-linecap:butt;stroke-linejoin:round;stroke-miterlimit:4;stroke-dasharray:none;stroke-dashoffset:0;stroke-opacity:1" />
    <path
       style="opacity:1;fill:none;fill-opacity:1;fill-rule:evenodd;stroke:#858585;stroke-width:5.31496048;stroke-linecap:butt;stroke-linejoin:round;stroke-miterlimit:4;stroke-dasharray:none;stroke-dashoffset:0;stroke-opacity:1"
       d="m 152.61094,220.92658 0,-33.15729 c 0,0 -16.78486,-26.23875 -21.09262,-26.36579 -3.83933,0.5438 -17.92872,25.76652 -17.92872,26.36579 l 0,33.15729 c 0,4.67412 3.76291,8.43705 8.43705,8.43705 l 22.14724,0 c 4.67414,0 8.43705,-3.76293 8.43705,-8.43705 z"
       id="button-13"
       inkscape:connector-curvature="0"
       sodipodi:nodetypes="sccsssss"
       inkscape:label="#button-13" />
    <path
       style="opacity:1;fill:none;fill-opacity:1;fill-rule:evenodd;stroke:#858585;stroke-width:5.31496048;stroke-linecap:butt;stroke-linejoin:round;stroke-miterlimit:4;stroke-dasharray:none;stroke-dashoffset:0;stroke-opacity:1"
       d="m 131.48024,-67.936865 c -31.18808,1.8e-4 -56.471259,10.22883 -56.472963,22.846905 l 0.282397,22.225095 c 0,0 39.008356,-7.22292 57.052756,-7.22292 18.64592,0 55.85083,7.22292 55.85083,7.22292 0,0 -0.0255,-17.17956 -0.11205,-21.89103 -0.22953,-12.48288 -27.72582,-23.167845 -56.60095,-23.18097 z"
       id="button-4"
       inkscape:connector-curvature="0"
       sodipodi:nodetypes="cccscsc" />
    <path
       style="opacity:1;fill:none;fill-opacity:1;fill-rule:evenodd;stroke:#858585;stroke-width:5.31496048;stroke-linecap:butt;stroke-linejoin:round;stroke-miterlimit:4;stroke-dasharray:none;stroke-dashoffset:0;stroke-opacity:1"
       d="m 131.6012,-148.72101 c -20.86686,-4.1e-4 -37.783098,23.42116 -37.783618,52.313755 0.01125,5.12916 0.567357,10.228155 1.650265,15.133305 11.529963,-4.0863 21.849433,-5.48613 35.163053,-5.50338 14.16509,0.0156 23.8435,1.2618 36.79834,6.842685 1.28381,-5.31069 1.94344,-10.872345 1.95372,-16.47261 -5.3e-4,-28.891575 -16.91563,-52.312725 -37.78176,-52.313755 z"
       id="button-6"
       inkscape:connector-curvature="0"
       sodipodi:nodetypes="ccccccc"
       inkscape:label="#button-6" />
    <path
       sodipodi:nodetypes="cccscsc"
       inkscape:connector-curvature="0"
       id="button-5"
       d="m 725.48021,-67.936865 c -31.18807,1.8e-4 -56.47127,10.22883 -56.47296,22.846905 l 0.28239,22.225095 c 0,0 39.00836,-7.22292 57.05277,-7.22292 18.64591,0 55.85082,7.22292 55.85082,7.22292 0,0 -0.0255,-17.17956 -0.11205,-21.89103 -0.22953,-12.48288 -27.72582,-23.167845 -56.60094,-23.18097 z"
       style="opacity:1;fill:none;fill-opacity:1;fill-rule:evenodd;stroke:#858585;stroke-width:5.31496048;stroke-linecap:butt;stroke-linejoin:round;stroke-miterlimit:4;stroke-dasharray:none;stroke-dashoffset:0;stroke-opacity:1" />
    <path
       sodipodi:nodetypes="ccccccc"
       inkscape:connector-curvature="0"
       id="button-7"
       d="m 725.60117,-148.72101 c -20.86686,-4.1e-4 -37.7831,23.42116 -37.78362,52.313755 0.0105,5.12916 0.56736,10.228155 1.65027,15.133305 11.52996,-4.0863 21.84943,-5.48613 35.16306,-5.50338 14.16509,0.0156 23.84349,1.2618 36.79833,6.842685 1.28382,-5.31069 1.94344,-10.872345 1.95372,-16.47261 -5.3e-4,-28.891575 -16.91562,-52.312725 -37.78176,-52.313755 z"
       style="opacity:1;fill:none;fill-opacity:1;fill-rule:evenodd;stroke:#858585;stroke-width:5.31496048;stroke-linecap:butt;stroke-linejoin:round;stroke-miterlimit:4;stroke-dasharray:none;stroke-dashoffset:0;stroke-opacity:1" />
    <g
       id="g4368"
       transform="matrix(1.5,0,0,1.5,19.24682,-281.47988)">
      <circle
         r="68.437836"
         cy="287.90897"
         cx="74.902298"
         id="path4182"
         style="opacity:1;fill:none;fill-opacity:1;fill-rule:evenodd;stroke:#f1f1f1;stroke-width:3.54330707;stroke-linecap:butt;stroke-linejoin:round;stroke-miterlimit:4;stroke-dasharray:none;stroke-dashoffset:0;stroke-opacity:1" />
      <circle
         style="opacity:1;fill:none;fill-opacity:1;fill-rule:evenodd;stroke:#f1f1f1;stroke-width:3.54330707;stroke-linecap:butt;stroke-linejoin:round;stroke-miterlimit:4;stroke-dasharray:none;stroke-dashoffset:0;stroke-opacity:1"
         id="circle4184"
         cx="470.90228"
         cy="287.90897"
         r="68.437836" />
      <circle
         style="opacity:1;fill:none;fill-opacity:1;fill-rule:evenodd;stroke:#f1f1f1;stroke-width:3.54330707;stroke-linecap:butt;stroke-linejoin:round;stroke-miterlimit:4;stroke-dasharray:none;stroke-dashoffset:0;stroke-opacity:1"
         id="circle4230"
         cx="156.74483"
         cy="373.28204"
         r="46.018215" />
      <circle
         r="46.018215"
         cy="373.28204"
         cx="387.44482"
         id="circle4232"
         style="opacity:1;fill:none;fill-opacity:1;fill-rule:evenodd;stroke:#f1f1f1;stroke-width:3.54330707;stroke-linecap:butt;stroke-linejoin:round;stroke-miterlimit:4;stroke-dasharray:none;stroke-dashoffset:0;stroke-opacity:1" />
    </g>
    <circle
       style="opacity:1;fill:#000000;fill-opacity:1;fill-rule:evenodd;stroke:none;stroke-width:1.00602961;stroke-linecap:butt;stroke-linejoin:round;stroke-miterlimit:4;stroke-dasharray:none;stroke-dashoffset:0;stroke-opacity:1"
       id="left-thumb"
       cx="254.36406"
       cy="278.44318"
       r="12.28257"
       inkscape:label="#axis-0 #axis-1" />
    <circle
       r="12.28257"
       cy="278.44318"
       cx="600.41406"
       id="right-thumb"
       style="opacity:1;fill:#000000;fill-opacity:1;fill-rule:evenodd;stroke:none;stroke-width:1.00602961;stroke-linecap:butt;stroke-linejoin:round;stroke-miterlimit:4;stroke-dasharray:none;stroke-dashoffset:0;stroke-opacity:1"
       inkscape:label="#axis-2 #axis-3" />
    <path
       style="opacity:1;fill:none;fill-opacity:1;fill-rule:evenodd;stroke:#8e8e8e;stroke-width:3.54330707;stroke-linecap:butt;stroke-linejoin:round;stroke-miterlimit:4;stroke-dasharray:none;stroke-dashoffset:0;stroke-opacity:1"
       d="m 250.55726,380.23481 180,0 180,0 c 6e-5,39.6565 -34.30776,76.3007 -90,96.1289 -55.69219,19.8283 -124.3078,19.8283 -180,0 -55.69224,-19.8282 -90.00006,-56.4724 -90,-96.1289 z"
       id="path4507"
       inkscape:connector-curvature="0"
       sodipodi:nodetypes="cccssc" />
  </g>
</svg>
