<?xml version="1.0" encoding="UTF-8" standalone="no"?>
<!-- Created with Inkscape (http://www.inkscape.org/) -->

<svg
   xmlns:dc="http://purl.org/dc/elements/1.1/"
   xmlns:cc="http://creativecommons.org/ns#"
   xmlns:rdf="http://www.w3.org/1999/02/22-rdf-syntax-ns#"
   xmlns:svg="http://www.w3.org/2000/svg"
   xmlns="http://www.w3.org/2000/svg"
   xmlns:sodipodi="http://sodipodi.sourceforge.net/DTD/sodipodi-0.dtd"
   xmlns:inkscape="http://www.inkscape.org/namespaces/inkscape"
   width="228.08401mm"
   height="142.53627mm"
   viewBox="0 0 808.17172 505.04979"
   id="svg2"
   version="1.1"
   inkscape:version="0.91 r13725"
   sodipodi:docname="ps4_oda.svg">
  <defs
     id="defs4" />
  <sodipodi:namedview
     id="base"
     pagecolor="#ffffff"
     bordercolor="#666666"
     borderopacity="1.0"
     inkscape:pageopacity="0"
     inkscape:pageshadow="2"
     inkscape:zoom="1.0169356"
     inkscape:cx="402.03872"
     inkscape:cy="209.32048"
     inkscape:document-units="px"
     inkscape:current-layer="g4378"
     showgrid="false"
     showguides="false"
     inkscape:guide-bbox="true"
     fit-margin-top="0.5"
     fit-margin-left="0.5"
     fit-margin-right="0.5"
     fit-margin-bottom="0.5"
     inkscape:window-width="1920"
     inkscape:window-height="957"
     inkscape:window-x="0"
     inkscape:window-y="1"
     inkscape:window-maximized="1">
    <sodipodi:guide
       position="363.38422,187.46146"
       orientation="1,0"
       id="guide4200" />
    <sodipodi:guide
       position="-599.29119,517.78136"
       orientation="1,0"
       id="guide4217" />
  </sodipodi:namedview>
  <metadata
     id="metadata7">
    <rdf:RDF>
      <cc:Work
         rdf:about="">
        <dc:format>image/svg+xml</dc:format>
        <dc:type
           rdf:resource="http://purl.org/dc/dcmitype/StillImage" />
        <dc:title></dc:title>
      </cc:Work>
    </rdf:RDF>
  </metadata>
  <g
     inkscape:label="Layer 1"
     inkscape:groupmode="layer"
     id="layer1"
     transform="translate(-24.514379,153.15011)">
    <g
       id="g4378">
      <rect
         rx="8.0812206"
         ry="8.0812206"
         y="23.984468"
         x="254.73929"
         height="161.80074"
         width="347.58646"
         id="button-17"
         style="opacity:1;fill:none;fill-opacity:1;fill-rule:evenodd;stroke:#858585;stroke-width:4.87135458;stroke-linecap:butt;stroke-linejoin:round;stroke-miterlimit:4;stroke-dasharray:none;stroke-dashoffset:0;stroke-opacity:1" />
      <rect
         style="opacity:1;fill:none;fill-opacity:1;fill-rule:evenodd;stroke:#858585;stroke-width:5.31496048;stroke-linecap:butt;stroke-linejoin:round;stroke-miterlimit:4;stroke-dasharray:none;stroke-dashoffset:0;stroke-opacity:1"
         id="button-9"
         width="29.546963"
         height="47.807987"
         x="620.75903"
         y="25.786455"
         ry="8.0812197"
         rx="8.0812197" />
      <rect
         rx="8.0812197"
         ry="8.0812197"
         y="25.786455"
         x="206.75905"
         height="47.807987"
         width="29.546963"
         id="button-8"
         style="opacity:1;fill:none;fill-opacity:1;fill-rule:evenodd;stroke:#858585;stroke-width:5.31496048;stroke-linecap:butt;stroke-linejoin:round;stroke-miterlimit:4;stroke-dasharray:none;stroke-dashoffset:0;stroke-opacity:1" />
      <circle
         r="21.970818"
         cy="150.38358"
         cx="665.60022"
         id="button-2"
         style="opacity:1;fill:none;fill-opacity:1;fill-rule:evenodd;stroke:#858585;stroke-width:5.31496048;stroke-linecap:butt;stroke-linejoin:round;stroke-miterlimit:4;stroke-dasharray:none;stroke-dashoffset:0;stroke-opacity:1" />
      <circle
         style="opacity:1;fill:none;fill-opacity:1;fill-rule:evenodd;stroke:#858585;stroke-width:5.31496048;stroke-linecap:butt;stroke-linejoin:round;stroke-miterlimit:4;stroke-dasharray:none;stroke-dashoffset:0;stroke-opacity:1"
         id="button-1"
         cx="785.60022"
         cy="150.38358"
         r="21.970818" />
      <circle
         r="21.970818"
         cy="90.383568"
         cx="725.60022"
         id="button-3"
         style="opacity:1;fill:none;fill-opacity:1;fill-rule:evenodd;stroke:#858585;stroke-width:5.31496048;stroke-linecap:butt;stroke-linejoin:round;stroke-miterlimit:4;stroke-dasharray:none;stroke-dashoffset:0;stroke-opacity:1" />
      <circle
         style="opacity:1;fill:none;fill-opacity:1;fill-rule:evenodd;stroke:#858585;stroke-width:5.31496048;stroke-linecap:butt;stroke-linejoin:round;stroke-miterlimit:4;stroke-dasharray:none;stroke-dashoffset:0;stroke-opacity:1"
         id="button-0"
         cx="725.60022"
         cy="210.38358"
         r="21.970818" />
      <circle
         inkscape:label="button-16"
         r="21.970818"
         cy="310.55045"
         cx="428.53253"
         id="button-16"
         style="opacity:1;fill:none;fill-opacity:1;fill-rule:evenodd;stroke:#858585;stroke-width:5.31496048;stroke-linecap:butt;stroke-linejoin:round;stroke-miterlimit:4;stroke-dasharray:none;stroke-dashoffset:0;stroke-opacity:1" />
      <circle
         style="opacity:1;fill:none;fill-opacity:1;fill-rule:evenodd;stroke:#858585;stroke-width:5.31496048;stroke-linecap:butt;stroke-linejoin:round;stroke-miterlimit:4;stroke-dasharray:none;stroke-dashoffset:0;stroke-opacity:1"
         id="button-10"
         cx="254.36406"
         cy="278.44318"
         r="43.260078" />
      <circle
         r="43.260078"
         cy="278.44318"
         cx="600.41406"
         id="button-11"
         style="opacity:1;fill:none;fill-opacity:1;fill-rule:evenodd;stroke:#858585;stroke-width:5.31496048;stroke-linecap:butt;stroke-linejoin:round;stroke-miterlimit:4;stroke-dasharray:none;stroke-dashoffset:0;stroke-opacity:1" />
      <path
         sodipodi:nodetypes="sccsssss"
         inkscape:connector-curvature="0"
         id="button-14"
         d="m 62.557259,130.8729 33.157289,0 c 0,0 26.238742,16.78486 26.365782,21.09262 -0.5438,3.83933 -25.766511,17.92872 -26.365782,17.92872 l -33.157289,0 c -4.674126,0 -8.43705,-3.76291 -8.43705,-8.43705 l 0,-22.14725 c 0,-4.67413 3.762924,-8.43705 8.43705,-8.43705 z"
         style="opacity:1;fill:none;fill-opacity:1;fill-rule:evenodd;stroke:#858585;stroke-width:5.31496048;stroke-linecap:butt;stroke-linejoin:round;stroke-miterlimit:4;stroke-dasharray:none;stroke-dashoffset:0;stroke-opacity:1" />
      <path
         style="opacity:1;fill:none;fill-opacity:1;fill-rule:evenodd;stroke:#858585;stroke-width:5.31496048;stroke-linecap:butt;stroke-linejoin:round;stroke-miterlimit:4;stroke-dasharray:none;stroke-dashoffset:0;stroke-opacity:1"
         d="m 200.64328,130.8729 -33.15729,0 c 0,0 -26.23874,16.78486 -26.36578,21.09262 0.5438,3.83933 25.76651,17.92872 26.36578,17.92872 l 33.15729,0 c 4.67413,0 8.43705,-3.76291 8.43705,-8.43705 l 0,-22.14725 c 0,-4.67413 -3.76292,-8.43705 -8.43705,-8.43705 z"
         id="button-15"
         inkscape:connector-curvature="0"
         sodipodi:nodetypes="sccsssss" />
      <path
         style="opacity:1;fill:none;fill-opacity:1;fill-rule:evenodd;stroke:#858585;stroke-width:5.31496048;stroke-linecap:butt;stroke-linejoin:round;stroke-miterlimit:4;stroke-dasharray:none;stroke-dashoffset:0;stroke-opacity:1"
         d="m 152.61094,79.840555 0,33.157285 c 0,0 -16.78486,26.23875 -21.09262,26.36579 -3.83933,-0.5438 -17.92872,-25.76652 -17.92872,-26.36579 l 0,-33.157285 c 0,-4.67412 3.76291,-8.43705 8.43705,-8.43705 l 22.14724,0 c 4.67414,0 8.43705,3.76293 8.43705,8.43705 z"
         id="button-12"
         inkscape:connector-curvature="0"
         sodipodi:nodetypes="sccsssss" />
      <path
         inkscape:label="#button-13"
         sodipodi:nodetypes="sccsssss"
         inkscape:connector-curvature="0"
         id="button-13"
         d="m 152.61094,220.92658 0,-33.15729 c 0,0 -16.78486,-26.23875 -21.09262,-26.36579 -3.83933,0.5438 -17.92872,25.76652 -17.92872,26.36579 l 0,33.15729 c 0,4.67412 3.76291,8.43705 8.43705,8.43705 l 22.14724,0 c 4.67414,0 8.43705,-3.76293 8.43705,-8.43705 z"
         style="opacity:1;fill:none;fill-opacity:1;fill-rule:evenodd;stroke:#858585;stroke-width:5.31496048;stroke-linecap:butt;stroke-linejoin:round;stroke-miterlimit:4;stroke-dasharray:none;stroke-dashoffset:0;stroke-opacity:1" />
      <path
         sodipodi:nodetypes="cccscsc"
         inkscape:connector-curvature="0"
         id="button-4"
         d="m 131.48024,-67.936865 c -31.18808,1.8e-4 -56.471259,10.22883 -56.472963,22.846905 l 0.282397,22.225095 c 0,0 39.008356,-7.22292 57.052756,-7.22292 18.64592,0 55.85083,7.22292 55.85083,7.22292 0,0 -0.0255,-17.17956 -0.11205,-21.89103 -0.22953,-12.48288 -27.72582,-23.167845 -56.60095,-23.18097 z"
         style="opacity:1;fill:none;fill-opacity:1;fill-rule:evenodd;stroke:#858585;stroke-width:5.31496048;stroke-linecap:butt;stroke-linejoin:round;stroke-miterlimit:4;stroke-dasharray:none;stroke-dashoffset:0;stroke-opacity:1" />
      <path
         inkscape:label="#button-6"
         sodipodi:nodetypes="ccccccc"
         inkscape:connector-curvature="0"
         id="button-6"
         d="m 131.6012,-148.72101 c -20.86686,-4.1e-4 -37.783098,23.42116 -37.783618,52.313755 0.01125,5.12916 0.567357,10.228155 1.650265,15.133305 11.529963,-4.0863 21.849433,-5.48613 35.163053,-5.50338 14.16509,0.0156 23.8435,1.2618 36.79834,6.842685 1.28381,-5.31069 1.94344,-10.872345 1.95372,-16.47261 -5.3e-4,-28.891575 -16.91563,-52.312725 -37.78176,-52.313755 z"
         style="opacity:1;fill:none;fill-opacity:1;fill-rule:evenodd;stroke:#858585;stroke-width:5.31496048;stroke-linecap:butt;stroke-linejoin:round;stroke-miterlimit:4;stroke-dasharray:none;stroke-dashoffset:0;stroke-opacity:1" />
      <path
         style="opacity:1;fill:none;fill-opacity:1;fill-rule:evenodd;stroke:#858585;stroke-width:5.31496048;stroke-linecap:butt;stroke-linejoin:round;stroke-miterlimit:4;stroke-dasharray:none;stroke-dashoffset:0;stroke-opacity:1"
         d="m 725.48021,-67.936865 c -31.18807,1.8e-4 -56.47127,10.22883 -56.47296,22.846905 l 0.28239,22.225095 c 0,0 39.00836,-7.22292 57.05277,-7.22292 18.64591,0 55.85082,7.22292 55.85082,7.22292 0,0 -0.0255,-17.17956 -0.11205,-21.89103 -0.22953,-12.48288 -27.72582,-23.167845 -56.60094,-23.18097 z"
         id="button-5"
         inkscape:connector-curvature="0"
         sodipodi:nodetypes="cccscsc" />
      <path
         style="opacity:1;fill:none;fill-opacity:1;fill-rule:evenodd;stroke:#858585;stroke-width:5.31496048;stroke-linecap:butt;stroke-linejoin:round;stroke-miterlimit:4;stroke-dasharray:none;stroke-dashoffset:0;stroke-opacity:1"
         d="m 725.60117,-148.72101 c -20.86686,-4.1e-4 -37.7831,23.42116 -37.78362,52.313755 0.0105,5.12916 0.56736,10.228155 1.65027,15.133305 11.52996,-4.0863 21.84943,-5.48613 35.16306,-5.50338 14.16509,0.0156 23.84349,1.2618 36.79833,6.842685 1.28382,-5.31069 1.94344,-10.872345 1.95372,-16.47261 -5.3e-4,-28.891575 -16.91562,-52.312725 -37.78176,-52.313755 z"
         id="button-7"
         inkscape:connector-curvature="0"
         sodipodi:nodetypes="ccccccc" />
      <g
         id="g4368"
         transform="matrix(1.5,0,0,1.5,19.24682,-281.47988)">
        <circle
           style="opacity:1;fill:none;fill-opacity:1;fill-rule:evenodd;stroke:#f1f1f1;stroke-width:3.54330707;stroke-linecap:butt;stroke-linejoin:round;stroke-miterlimit:4;stroke-dasharray:none;stroke-dashoffset:0;stroke-opacity:1"
           id="path4182"
           cx="74.902298"
           cy="287.90897"
           r="68.437836" />
        <circle
           r="68.437836"
           cy="287.90897"
           cx="470.90228"
           id="circle4184"
           style="opacity:1;fill:none;fill-opacity:1;fill-rule:evenodd;stroke:#f1f1f1;stroke-width:3.54330707;stroke-linecap:butt;stroke-linejoin:round;stroke-miterlimit:4;stroke-dasharray:none;stroke-dashoffset:0;stroke-opacity:1" />
        <circle
           r="46.018215"
           cy="373.28204"
           cx="156.74483"
           id="circle4230"
           style="opacity:1;fill:none;fill-opacity:1;fill-rule:evenodd;stroke:#f1f1f1;stroke-width:3.54330707;stroke-linecap:butt;stroke-linejoin:round;stroke-miterlimit:4;stroke-dasharray:none;stroke-dashoffset:0;stroke-opacity:1" />
        <circle
           style="opacity:1;fill:none;fill-opacity:1;fill-rule:evenodd;stroke:#f1f1f1;stroke-width:3.54330707;stroke-linecap:butt;stroke-linejoin:round;stroke-miterlimit:4;stroke-dasharray:none;stroke-dashoffset:0;stroke-opacity:1"
           id="circle4232"
           cx="387.44482"
           cy="373.28204"
           r="46.018215" />
      </g>
    </g>
  </g>
</svg>
